<svg width="512" height="192" viewBox="0 0 512 192" fill="none" xmlns="http://www.w3.org/2000/svg">
  <rect width="512" height="192" fill="#eef8f2"/>
  <ellipse cx="320" cy="58" rx="250" ry="122" fill="#f7fbf6"/>
  <g opacity=".98">
    <path d="M-34 42C4 5 58-7 96 15c-9 51-55 92-107 88-17-1-32-8-43-19 2-15 9-29 20-42Z" fill="#86bd50"/>
    <path d="M8 61c42-25 64-32 111-35M31 27c8 24 16 42 23 72M75 17c-9 29-17 53-34 82" stroke="#559137" stroke-width="3" stroke-linecap="round" opacity=".52"/>
    <path d="M39-15c48 18 80 64 71 117-54 5-106-26-122-76 12-20 28-34 51-41Z" fill="#74ae40"/>
    <path d="M16 10c33 22 59 49 86 83M58-1c-5 31-10 59-24 90" stroke="#4d8432" stroke-width="3" stroke-linecap="round" opacity=".55"/>
    <path d="M-20 119c38-29 82-31 116-6-12 41-54 66-98 57-16-3-29-10-39-21 4-12 11-22 21-30Z" fill="#a6d073"/>
  </g>
  <g opacity=".92">
    <ellipse cx="492" cy="43" rx="51" ry="72" transform="rotate(-28 492 43)" fill="#81b342"/>
    <ellipse cx="492" cy="43" rx="31" ry="51" transform="rotate(-28 492 43)" fill="#e4e5a8"/>
    <path d="M461 19c23 17 43 42 59 75" stroke="#5a7e32" stroke-width="2" opacity=".45"/>
    <ellipse cx="438" cy="177" rx="61" ry="82" transform="rotate(-42 438 177)" fill="#8bbb4d"/>
    <ellipse cx="438" cy="177" rx="37" ry="58" transform="rotate(-42 438 177)" fill="#ebdfaf"/>
    <path d="M399 143c27 18 53 46 76 85" stroke="#6c8139" stroke-width="2" opacity=".45"/>
  </g>
  <g opacity=".88">
    <path d="M86 4c41-9 83 6 110 40-32 37-88 45-129 19-11-7-20-16-27-26 10-17 25-28 46-33Z" fill="#7caf45"/>
    <path d="M54 31c53 5 94 13 135 25M112 4c-14 21-25 38-52 61M150 16c-11 22-23 39-48 58" stroke="#4c8431" stroke-width="3" stroke-linecap="round" opacity=".45"/>
  </g>
  <rect y="72" width="512" height="120" fill="url(#fade)"/>
  <defs>
    <linearGradient id="fade" x1="256" y1="72" x2="256" y2="192" gradientUnits="userSpaceOnUse">
      <stop stop-color="white" stop-opacity="0"/>
      <stop offset=".72" stop-color="white"/>
    </linearGradient>
  </defs>
</svg>
