<svg width="180" height="180" viewBox="0 0 180 180" fill="none" xmlns="http://www.w3.org/2000/svg">
  <rect width="180" height="180" fill="#fff"/>
  <g fill="#4c7b69">
    <rect x="14" y="14" width="34" height="6"/><rect x="14" y="20" width="6" height="28"/><rect x="42" y="20" width="6" height="28"/><rect x="20" y="42" width="28" height="6"/><rect x="25" y="25" width="12" height="12"/>
    <rect x="132" y="14" width="34" height="6"/><rect x="132" y="20" width="6" height="28"/><rect x="160" y="20" width="6" height="28"/><rect x="138" y="42" width="28" height="6"/><rect x="143" y="25" width="12" height="12"/>
    <rect x="14" y="132" width="34" height="6"/><rect x="14" y="138" width="6" height="28"/><rect x="42" y="138" width="6" height="28"/><rect x="20" y="160" width="28" height="6"/><rect x="25" y="143" width="12" height="12"/>
    <rect x="62" y="14" width="12" height="12"/><rect x="80" y="14" width="6" height="18"/><rect x="98" y="14" width="18" height="6"/><rect x="116" y="20" width="6" height="18"/>
    <rect x="56" y="32" width="18" height="6"/><rect x="86" y="32" width="12" height="12"/><rect x="104" y="38" width="18" height="6"/><rect x="122" y="50" width="6" height="12"/>
    <rect x="62" y="56" width="6" height="18"/><rect x="74" y="56" width="18" height="6"/><rect x="98" y="56" width="6" height="18"/><rect x="110" y="62" width="12" height="12"/><rect x="134" y="56" width="18" height="6"/><rect x="158" y="62" width="8" height="14"/>
    <rect x="14" y="62" width="18" height="6"/><rect x="38" y="62" width="6" height="12"/><rect x="50" y="68" width="12" height="12"/><rect x="68" y="74" width="12" height="6"/><rect x="92" y="74" width="18" height="6"/><rect x="116" y="80" width="12" height="12"/><rect x="140" y="80" width="12" height="6"/><rect x="158" y="86" width="8" height="18"/>
    <rect x="20" y="86" width="12" height="18"/><rect x="38" y="86" width="18" height="6"/><rect x="62" y="86" width="12" height="12"/><rect x="80" y="86" width="6" height="24"/><rect x="92" y="92" width="18" height="6"/><rect x="122" y="98" width="18" height="6"/><rect x="146" y="98" width="6" height="18"/>
    <rect x="14" y="110" width="18" height="6"/><rect x="44" y="104" width="12" height="18"/><rect x="62" y="110" width="24" height="6"/><rect x="92" y="110" width="6" height="18"/><rect x="104" y="116" width="18" height="12"/><rect x="134" y="116" width="12" height="6"/><rect x="158" y="116" width="8" height="12"/>
    <rect x="56" y="132" width="18" height="6"/><rect x="80" y="128" width="12" height="18"/><rect x="98" y="134" width="6" height="12"/><rect x="110" y="132" width="18" height="6"/><rect x="134" y="134" width="12" height="18"/><rect x="152" y="134" width="14" height="6"/>
    <rect x="56" y="152" width="6" height="14"/><rect x="68" y="152" width="18" height="6"/><rect x="92" y="152" width="12" height="14"/><rect x="110" y="158" width="12" height="8"/><rect x="128" y="152" width="18" height="6"/><rect x="152" y="152" width="6" height="14"/>
    <rect x="74" y="68" width="6" height="6"/><rect x="86" y="68" width="6" height="6"/><rect x="104" y="80" width="6" height="6"/><rect x="68" y="98" width="6" height="6"/><rect x="86" y="116" width="6" height="6"/><rect x="122" y="74" width="6" height="6"/><rect x="140" y="68" width="6" height="6"/><rect x="56" y="122" width="6" height="6"/><rect x="152" y="110" width="6" height="6"/>
  </g>
</svg>
